<svg width="48" height="48" viewBox="0 0 48 48" fill="none" xmlns="http://www.w3.org/2000/svg">
<path d="M28.7624 4.00208H7.28709C5.47465 4.00208 4 5.47662 4 7.28891V28.7131C4 28.7131 4 32 6.91843 32H9.88422C12.848 32 12.815 28.7625 12.815 28.7625L12.8665 12.9668L28.7129 12.9132C28.7129 12.9132 32 12.9132 32 9.96205V6.96353C32 3.96707 28.7624 4.00002 28.7624 4.00002V4.00208Z" fill="white"/>
<path d="M19.2376 43.9979H40.7129C42.5253 43.9979 44 42.5233 44 40.711V19.2868C44 19.2868 44 16 41.0815 16H38.1158C35.152 16 35.185 19.2375 35.185 19.2375L35.1334 35.0332L19.2871 35.0868C19.2871 35.0868 16 35.0868 16 38.0379V41.0364C16 44.033 19.2376 44 19.2376 44V43.9979Z" fill="white"/>
</svg>
